<svg xmlns="http://www.w3.org/2000/svg" width="95" height="70" viewBox="0 0 95 70">
  <defs>
    <style>
      .cls-1 {
        fill-rule: evenodd;
      }
    </style>
  </defs>
  <path id="X" class="cls-1" d="M9.315,2.733c0-.888-0.024-1.032.816-1.3A0.666,0.666,0,0,0,10.659.788,0.831,0.831,0,0,0,9.771.044H2.978a0.831,0.831,0,0,0-.888.744,0.666,0.666,0,0,0,.528.648c0.84,0.264.816,0.408,0.816,1.3V15.311c0,0.888.024,1.032-.816,1.3a0.666,0.666,0,0,0-.528.648A0.831,0.831,0,0,0,2.978,18H9.771a0.831,0.831,0,0,0,.888-0.744,0.666,0.666,0,0,0-.528-0.648c-0.84-.264-0.816-0.408-0.816-1.3V2.733Zm3.193,12.579c0,0.888.024,1.032-.816,1.3a0.666,0.666,0,0,0-.528.648,0.831,0.831,0,0,0,.888.744h6.794a0.831,0.831,0,0,0,.888-0.744,0.666,0.666,0,0,0-.528-0.648c-0.84-.264-0.816-0.408-0.816-1.3V2.733c0-.888-0.024-1.032.816-1.3A0.666,0.666,0,0,0,19.733.788,0.831,0.831,0,0,0,18.845.044H12.051a0.831,0.831,0,0,0-.888.744,0.666,0.666,0,0,0,.528.648c0.84,0.264.816,0.408,0.816,1.3V8.182H10.4V9.574h2.112v5.737ZM24.458,3.4H24.386L21.505,13.943c-0.456,1.7-1.1,2.257-1.608,2.521-0.528.264-.936,0.24-0.936,0.816,0,0.7.864,0.72,1.344,0.72h2.761c0.48,0,1.248.024,1.248-.648a0.866,0.866,0,0,0-.72-0.792c-0.816-.36-1.152-0.768-0.768-2.232l2.257-8.21Zm3.673,11.787c0.216,0.936.12,1.1-.5,1.464a0.651,0.651,0,0,0-.456.672c0,0.624.7,0.672,1.176,0.672h5.977c0.456,0,1.32.024,1.32-.624a0.772,0.772,0,0,0-.6-0.744,1.511,1.511,0,0,1-.84-1.416L30.6,0.044H25.3l-0.312,1.3,2.424,10.61H24.482l-0.336,1.392h3.5Zm8.542-.984c-0.384,3-1.92,2.064-1.92,3.1,0,0.744.984,0.7,1.248,0.7h2.737c0.264,0,1.248.048,1.248-.7,0-1.032-1.536-.1-1.92-3.1V6.958l-1.344-2.4H36.673v9.65ZM47.787,7.8l1.344,2.424H49.18V4.389c0-3.433,1.968-2.521,1.968-3.625a0.889,0.889,0,0,0-1.032-.72H46.851a0.889,0.889,0,0,0-1.032.72c0,1.1,1.968.192,1.968,3.625V7.8ZM42.194,0.044H36.025C35.521,0.068,34.8.068,34.8,0.788a0.764,0.764,0,0,0,.72.768,2.049,2.049,0,0,1,1.3,1.3L45.6,18H49.18V12.191Zm16.8,1.392C60.459,1.629,60.531,3,60.531,3.909V14.135c0,0.912-.072,2.281-1.536,2.473V18c3.985,0,8.042-3.337,7.778-8.978C66.484,2.829,63.075,0,58.994.044V1.436Zm-1.08-1.392H51.769c-0.48,0-1.08.072-1.08,0.7,0,0.6.456,0.672,0.936,0.84a1.085,1.085,0,0,1,.408,1.152V15.311c0,0.888.024,1.032-.816,1.3a0.666,0.666,0,0,0-.528.648c0,0.7.6,0.744,1.128,0.744h6.1V0.044ZM66.48,0.788a0.666,0.666,0,0,0,.528.648c0.84,0.264.816,0.408,0.816,1.3V15.311c0,0.888.024,1.032-.816,1.3a0.666,0.666,0,0,0-.528.648,0.831,0.831,0,0,0,.888.744h6.337V0.044H67.368A0.831,0.831,0,0,0,66.48.788Zm8.306,0.648a4.616,4.616,0,0,1,3.961,3.457,0.651,0.651,0,0,0,.648.6c0.72,0,.744-0.456.744-0.576V0.044H74.786V1.436Zm0,16.564h5.521V13.2a0.681,0.681,0,0,0-.7-0.816,0.918,0.918,0,0,0-.744.744,4.921,4.921,0,0,1-4.081,3.481V18Zm0-8.45a2.565,2.565,0,0,1,1.68,2.112,0.83,0.83,0,0,0,.768.792c0.744,0,.624-0.864.624-1.056V6.213c0-.192.12-1.056-0.624-1.056a0.83,0.83,0,0,0-.768.792,2.565,2.565,0,0,1-1.68,2.112V9.55Zm5.566-8.762a0.666,0.666,0,0,0,.528.648c0.84,0.264.816,0.408,0.816,1.3V15.311c0,0.888.024,1.032-.816,1.3a0.666,0.666,0,0,0-.528.648A0.831,0.831,0,0,0,81.24,18h6.337V0.044H81.24A0.831,0.831,0,0,0,80.352.788Zm8.306,0.648a4.616,4.616,0,0,1,3.961,3.457,0.651,0.651,0,0,0,.648.6c0.72,0,.744-0.456.744-0.576V0.044H88.658V1.436Zm0,16.564h5.521V13.2a0.681,0.681,0,0,0-.7-0.816,0.918,0.918,0,0,0-.744.744,4.921,4.921,0,0,1-4.081,3.481V18Zm0-8.45a2.565,2.565,0,0,1,1.68,2.112,0.83,0.83,0,0,0,.768.792c0.744,0,.624-0.864.624-1.056V6.213c0-.192.12-1.056-0.624-1.056a0.83,0.83,0,0,0-.768.792,2.565,2.565,0,0,1-1.68,2.112V9.55ZM7.6,53.626c1.341,0.176,1.407,1.429,1.407,2.265V65.26c0,0.836-.066,2.089-1.407,2.265V68.8c3.651,0,7.367-3.057,7.125-8.225C14.461,54.9,11.338,52.307,7.6,52.351v1.275ZM6.61,52.351H0.98c-0.44,0-.99.066-0.99,0.638,0,0.55.418,0.616,0.858,0.77a0.994,0.994,0,0,1,.374,1.055V66.337c0,0.814.022,0.946-.748,1.188a0.61,0.61,0,0,0-.484.594c0,0.638.55,0.682,1.034,0.682H6.61V52.351Zm14.652,2.463c0-.814-0.022-0.946.748-1.187a0.61,0.61,0,0,0,.484-0.594,0.762,0.762,0,0,0-.814-0.682H15.456a0.762,0.762,0,0,0-.814.682,0.61,0.61,0,0,0,.484.594c0.77,0.242.748,0.374,0.748,1.188V66.337c0,0.814.022,0.946-.748,1.188a0.61,0.61,0,0,0-.484.594,0.762,0.762,0,0,0,.814.682h6.223a0.762,0.762,0,0,0,.814-0.682,0.61,0.61,0,0,0-.484-0.594c-0.77-.242-0.748-0.374-0.748-1.187V54.814Zm8.646-1.187c1.342,0.176,1.407,1.429,1.407,2.265V65.26c0,0.836-.066,2.089-1.407,2.265V68.8c3.651,0,7.367-3.057,7.125-8.225-0.264-5.674-3.387-8.269-7.125-8.225v1.275Zm-0.989-1.275h-5.63c-0.44,0-.99.066-0.99,0.638,0,0.55.418,0.616,0.858,0.77a0.994,0.994,0,0,1,.374,1.055V66.337c0,0.814.022,0.946-.748,1.188a0.61,0.61,0,0,0-.484.594c0,0.638.55,0.682,1.034,0.682h5.586V52.351Zm17.444,7.7,2.155-4.728a2.472,2.472,0,0,1,1.561-1.605,0.7,0.7,0,0,0,.55-0.66c0-.66-0.616-0.7-1.122-0.7H47.066c-0.528,0-1.429-.11-1.429.682,0,0.9,1.5.418,1.5,1.737a2.646,2.646,0,0,1-.33,1.166l-1.144,2.551Zm-5.85,6.289c0,0.814.022,0.946-.748,1.188a0.61,0.61,0,0,0-.484.594,0.762,0.762,0,0,0,.814.682h6.223a0.762,0.762,0,0,0,.814-0.682,0.61,0.61,0,0,0-.484-0.594c-0.77-.242-0.748-0.374-0.748-1.187v-5.08l-2.727-6.223a2.246,2.246,0,0,1-.22-0.836,0.561,0.561,0,0,1,.418-0.528,0.8,0.8,0,0,0,.484-0.66c0-.7-0.726-0.66-1.209-0.66H37.214c-0.462,0-1.166-.044-1.166.638a0.68,0.68,0,0,0,.506.638,1.615,1.615,0,0,1,.638.924l3.321,7.873v3.914Zm11.2-1.012c-0.352,2.749-1.759,1.891-1.759,2.837,0,0.682.9,0.638,1.144,0.638H53.6c0.242,0,1.144.044,1.144-.638,0-.946-1.407-0.088-1.759-2.837V61.543l-1.231-3.629H51.711v7.411Zm9.082,1.012c0,0.814.022,0.946-.748,1.188a0.61,0.61,0,0,0-.484.594,0.762,0.762,0,0,0,.814.682H66.6a0.762,0.762,0,0,0,.814-0.682,0.61,0.61,0,0,0-.484-0.594c-0.77-.242-0.748-0.374-0.748-1.187V54.814c0-.814-0.022-0.946.748-1.187a0.61,0.61,0,0,0,.484-0.594,0.762,0.762,0,0,0-.814-0.682H60.793V66.337Zm-10.929-13.3a0.746,0.746,0,0,0,.858.594,0.848,0.848,0,0,1,.66.616,4.512,4.512,0,0,1,.4.946l4.6,13.612h0.638L59.8,59.454v-4H59.759L58.77,59.1H58.726l-2.353-6.751H50.787A0.749,0.749,0,0,0,49.864,53.033ZM79.514,64.072a3.672,3.672,0,0,1-2.947,3.716v1.3c1.429-.022,4.046-1.341,4.222-4.97V55.825c0.352-2.749,1.759-1.891,1.759-2.837,0-.682-0.9-0.638-1.144-0.638H78.9c-0.242,0-1.144-.044-1.144.638,0,0.946,1.407.088,1.759,2.837v8.247Zm-3.936,3.761a2.206,2.206,0,0,1-1.451-2.441V54.814c0-.814-0.022-0.946.748-1.187a0.61,0.61,0,0,0,.484-0.594,0.762,0.762,0,0,0-.814-0.682H68.321a0.762,0.762,0,0,0-.814.682,0.61,0.61,0,0,0,.484.594c0.77,0.242.748,0.374,0.748,1.188V65.238c0,1.1.264,1.935,2.243,3.035a8.616,8.616,0,0,0,4.6.858v-1.3ZM88.053,52.021c-3.233.11-5.652,2.177-5.652,5.52,0,3.453,2.573,4.706,5.344,5.872,1.056,0.462,2.683,1.034,2.639,2.419-0.044,1.21-.946,1.693-2,2.023V69.13c3.255-.066,6.091-2.287,6.091-5.7,0-2.023-.88-4.09-4.772-5.586-2.617-1.012-3.211-1.671-3.211-2.749a2.026,2.026,0,0,1,1.561-1.8V52.021Zm5.828,0.99a0.748,0.748,0,0,0-.638-0.924c-0.572,0-.528.792-1.1,0.792a11.413,11.413,0,0,0-3.1-.858V53.3a4.588,4.588,0,0,1,3.321,3.672,0.832,0.832,0,0,0,.792.858c0.638,0,.726-0.55.726-1.056v-3.76ZM82.4,68.118a0.809,0.809,0,0,0,.682.924c0.55,0,.484-0.726,1.188-0.726,0.792,0,1.21.77,3.123,0.814V67.854c-1.935-.4-3.167-2.573-3.474-4.332a0.849,0.849,0,0,0-.814-0.726,0.862,0.862,0,0,0-.7,1.078v4.244ZM48.24,26.771a1.64,1.64,0,0,1-.27-0.84c0-.78.93-0.54,0.93-1.35,0-1.02-1.17-1.02-1.92-1.02H40.05c-0.78,0-1.95-.06-1.95,1.02a0.837,0.837,0,0,0,.6.81,2.281,2.281,0,0,1,1.14,1.38l7.77,15.6A2.583,2.583,0,0,1,48,43.6c0,0.72-1.02.69-1.02,1.44,0,1.11,1.35.96,2.07,0.96h6.99c0.69,0,1.86,0,1.86-.96a0.991,0.991,0,0,0-.75-0.93,2.059,2.059,0,0,1-.96-1.17Zm3.51,4.32L54,27.551a5.965,5.965,0,0,1,2.16-2.16,1.274,1.274,0,0,0,.99-1.08c0-.72-0.96-0.75-1.44-0.75H51.69a1.418,1.418,0,0,0-1.14.3,0.892,0.892,0,0,0-.24.6,0.992,0.992,0,0,0,.72.9,1.424,1.424,0,0,1,.96,1.38,3.206,3.206,0,0,1-.69,1.65l-0.45.87Zm-7.74,6.84-2.73,4.44a4.1,4.1,0,0,1-2.13,1.89,0.991,0.991,0,0,0-.84.93c0,0.78.93,0.81,1.5,0.81h3.51a3.6,3.6,0,0,0,1.26-.12,1,1,0,0,0,.51-0.81c0-1.2-1.77-.66-1.77-2.1a5.922,5.922,0,0,1,1.08-2.28l0.54-.9Z"/>
</svg>
