<svg xmlns="http://www.w3.org/2000/svg" width="134" height="63" viewBox="0 0 134 63">
  <defs>
    <style>
      .cls-1 {
        fill-rule: evenodd;
      }
    </style>
  </defs>
  <path id="結婚" class="cls-1" d="M68.286,13.932a1.561,1.561,0,0,0-.36-1.008,60.56,60.56,0,0,0-6.985-7.345,1.588,1.588,0,0,0-1.08-.432,1.208,1.208,0,0,0-1.008.432c-1.584,1.8-3.024,3.816-4.536,5.761a5.224,5.224,0,0,1-.648.36c0-2.3.072-4.248,0.072-5.688,0-.936.432-1.3,1.656-1.8a2.026,2.026,0,0,0,1.3-1.728,1.476,1.476,0,0,0-1.44-1.368c-4.68-.648-10.8-1.152-14.617-1.368H40.06c-0.576,0-.72.072-0.72,0.432a8.365,8.365,0,0,0,.36,1.584,89.134,89.134,0,0,1,.36,10.225H37.971a31.751,31.751,0,0,1-5.112-.288,2.117,2.117,0,0,0-.864-0.72A93.319,93.319,0,0,0,20.762,7.164c-0.072,0-.144-0.072-0.216-0.072-0.576,0-.72.72-0.936,1.44a38.931,38.931,0,0,1-2.448,5.832,8.122,8.122,0,0,0-2.88-3.24,44.888,44.888,0,0,0,8.641-6.409,2.969,2.969,0,0,1,1.728-.576,1.448,1.448,0,0,0,1.368-1.3,1.375,1.375,0,0,0-1.3-1.224C21.338,0.9,15,.035,11.689-0.253H11.113c-0.648,0-.72.144-0.72,0.576v1.3a30.056,30.056,0,0,1-.864,7.2A26.983,26.983,0,0,0,5.353,7.74H5.137a0.74,0.74,0,0,0-.72.792A1.072,1.072,0,0,0,4.7,9.18a6.131,6.131,0,0,1,1.944,4.392c0,1.3-.36,2.448-0.36,3.888a7.578,7.578,0,0,0,.792,3.24,4.719,4.719,0,0,0,4.392,2.52h0.216c-0.576.936-1.3,1.8-1.944,2.736-1.728-.144-3.312-0.288-4.824-0.5a8.85,8.85,0,0,1-.936-0.144c-0.36,0-.5.216-0.432,1.152A79.839,79.839,0,0,0,5.281,36.83a1.14,1.14,0,0,0,1.152.936,1.209,1.209,0,0,0,1.152-1.008,1.275,1.275,0,0,1,1.3-1.224c1.08-.216,2.232-0.5,3.384-0.792,0.072,1.44.072,2.952,0.072,4.392-1.872-.432-3.744-0.864-5.688-1.152-0.648-.072-0.792,0-0.792.288,0,0.216.144,0.576,0.144,1.008V39.71A94.34,94.34,0,0,1,3.264,59.152V59.44a0.691,0.691,0,0,0,.648.792A1.245,1.245,0,0,0,4.777,59.8a31.147,31.147,0,0,0,7.417-9.361c0,3.384-.144,6.625-0.288,9.721v0.288c0,2.16,1.656,3.168,5.9,2.952,4.536-.216,6.049-0.936,6.049-3.312V59.944c-0.216-5.473-.288-12.529-0.288-19.8a9.848,9.848,0,0,1,1.224,4.68c0,1.8-.5,3.384-0.5,5.328a11.855,11.855,0,0,0,.144,1.512c0.432,2.52,2.16,3.816,3.96,3.816a4.224,4.224,0,0,0,3.744-2.52c-0.144,2.664-.216,5.256-0.36,7.633V60.88c0,2.088,1.584,2.52,4.32,2.52,0.648,0,1.44,0,2.232-.072,3.96-.144,6.913-0.792,6.913-3.24V60.016c0-.5-0.072-1.008-0.072-1.44h5.617c0,0.648-.072,1.368-0.072,2.016v0.144c0,2.088,1.872,2.592,4.32,2.592a19.552,19.552,0,0,0,2.016-.072c4.536-.216,6.985-0.72,6.985-3.168V60.016c-0.144-4.752-.288-9.5-0.288-13.177,0-1.44,0-2.664.072-3.744,0.072-1.728.36-1.8,1.872-2.664a2.2,2.2,0,0,0,1.224-1.872,2.478,2.478,0,0,0-1.152-1.944,74.591,74.591,0,0,0-7.849-5.256,2.282,2.282,0,0,0-2.52,0c-1.512,1.224-3.24,3.024-4.68,4.392a1.648,1.648,0,0,1-1.224.576h-3.6s-6.913-2.88-13.105-4.752a4.06,4.06,0,0,0,.072-0.5,9.43,9.43,0,0,0,0-2.016h33.7c1.152,0,1.368-1.368.648-2.232a82.928,82.928,0,0,0-6.84-7.273,2.015,2.015,0,0,0-2.016,0c-1.44,1.728-3.312,4.176-4.608,6.049-0.072-3.816-.072-6.985-0.072-10.441H67.062A1.132,1.132,0,0,0,68.286,13.932ZM40.06,15.156c0,3.816,0,7.273-.072,10.729H31.347a20.378,20.378,0,0,0-7.921-4.824,59.662,59.662,0,0,0,5.9-6.193,1.755,1.755,0,0,0,1.512.864h0.216a29.649,29.649,0,0,1,6.985-.576H40.06ZM23.642,26.245H16.874c1.8-1.224,3.528-2.592,5.112-3.888A7.024,7.024,0,0,1,23.642,26.245Zm8.641,20.306c-1.008-3.744-3.888-6.769-8.713-9V31.934c0.072,0.216.072,0.432,0.144,0.648a3.905,3.905,0,0,0,4.032,2.952,5.3,5.3,0,0,0,3.96-1.728A94.678,94.678,0,0,1,32.283,46.551Zm18.578,8.713H45.1c-0.144-5.473-.144-11.377,0-15.7h5.761C51,44.247,51,49.863,50.861,55.264Zm84.1-25.922a5.645,5.645,0,0,0-1.224-3.672c-0.792-.936-1.512-1.3-1.512-3.528a18.122,18.122,0,0,1,.288-3.024h0.864a1.036,1.036,0,0,0,1.152-1.08,1.964,1.964,0,0,0-.36-1.152,69.8,69.8,0,0,0-5.04-5.184,1.231,1.231,0,0,0-1.873,0c-1.08.936-2.376,2.3-3.384,3.24a18.669,18.669,0,0,1-.432-4.536c0.864-.072,3.024-0.144,3.744-0.288a3.914,3.914,0,0,1,2.593.216,3.581,3.581,0,0,0,1.152.216,1.083,1.083,0,0,0,1.3-1.008,2.346,2.346,0,0,0-.792-1.584c-1.8-1.944-6.193-6.337-8.209-8.065A2.228,2.228,0,0,0,122-.829a1.49,1.49,0,0,0-1.008.72c-1.152,1.368-5.329,4.392-10.513,6.409,0,0-7.129-2.88-12.025-4.536a4.868,4.868,0,0,0-1.08-.288,0.407,0.407,0,0,0-.432.5,4.417,4.417,0,0,0,.216,1.152,98.685,98.685,0,0,1,.72,11.665c-1.728-1.584-3.816-3.168-5.4-4.392a1.885,1.885,0,0,0-1.224-.36,1.408,1.408,0,0,0-1.008.288c-1.08,1.008-2.448,2.448-3.6,3.672a1.74,1.74,0,0,1-1.512.432H84.77c0.36-3.384.648-6.337,0.864-8.569,0.072-.864.5-1.152,1.872-1.656A1.89,1.89,0,0,0,88.73,2.555a1.325,1.325,0,0,0-1.224-1.368A114.69,114.69,0,0,0,75.7-.325h-0.36c-0.576,0-.72.216-0.72,0.648a2.48,2.48,0,0,0,.072.648,17.151,17.151,0,0,1,.144,2.376c0,2.52-.288,6.337-0.792,10.945a22.736,22.736,0,0,1-3.456-.792,2.477,2.477,0,0,0-.648-0.072c-0.432,0-.576.144-0.432,0.72a31.3,31.3,0,0,0,1.08,3.384,1.394,1.394,0,0,0,1.224.72,0.914,0.914,0,0,0,.432-0.072,12.955,12.955,0,0,1,1.368-.36c-0.936,7.993-2.376,17.354-3.888,25.2v0.36c0,1.224,1.008,2.3,4.68,2.664a19.553,19.553,0,0,0,2.016.072c2.376,0,3.744-.5,3.96-1.872,0.072-.432.144-0.792,0.216-1.152a4.653,4.653,0,0,1,.648.576A51.63,51.63,0,0,1,70.369,61.888a0.818,0.818,0,0,0-.216.576,0.893,0.893,0,0,0,.864.936,0.649,0.649,0,0,0,.36-0.072A33.908,33.908,0,0,0,86.066,53.32c0.144,0.36.36,0.72,0.5,1.08a4.667,4.667,0,0,0,4.32,2.808,6.059,6.059,0,0,0,5.833-6.12,8.237,8.237,0,0,0-.648-3.1,10.8,10.8,0,0,0-4.248-5.04,52.922,52.922,0,0,0,3.24-12.313c0.216,1.728.5,4.1,0.864,5.9a1.067,1.067,0,0,0,1.008.936,1.589,1.589,0,0,0,1.3-1.008c0.072,1.44.072,3.24,0.072,5.185,0,5.688-.216,13.033-0.576,19.01V60.88c0,2.016,2.376,2.448,5.184,2.448h1.44c4.1-.216,6.985-1.008,6.985-3.24V60.016a5.1,5.1,0,0,0-.072-1.008h5.256c0,0.576-.072,1.152-0.072,1.728V60.88c0,1.944,1.945,2.52,4.537,2.52,0.792,0,1.656-.072,2.52-0.144,3.96-.36,6.553-1.224,6.553-3.456V59.584c-0.288-4.32-.36-9.289-0.36-12.817,0-2.16.072-3.816,0.072-4.536V42.015c0.144-.936.72-1.224,1.728-1.872a2.15,2.15,0,0,0,1.008-1.8,2.027,2.027,0,0,0-.72-1.512c-0.576-.5-1.3-1.008-2.016-1.584C133.3,35.03,134.958,32.078,134.958,29.342ZM112.852,15.948h-3.1c0-2.016.072-3.816,0.072-5.256,0.792,0.072,1.944.072,2.808,0.072Q112.636,13.572,112.852,15.948Zm17.354,3.168a9.858,9.858,0,0,1-1.224,2.736,2.2,2.2,0,0,1-1.513,1.152,1.782,1.782,0,0,1-1.152-.5,6.237,6.237,0,0,1-1.8-3.384h5.689Zm-15.7,5.473c-1.656.216-3.168,0.288-4.752,0.36-0.072-2.16-.072-4.032-0.072-5.833h3.384A27.492,27.492,0,0,0,114.508,24.589ZM97.875,19.4c0,2.016,0,3.96-.072,5.761-0.648,0-1.3-.072-1.8-0.072,0.216-1.3.432-2.664,0.576-4.032A1.844,1.844,0,0,1,97.875,19.4Zm-12.1-1.8c-0.72,7.417-1.368,14.905-3.384,22.25-0.36-.072-0.792-0.144-1.224-0.216,1.224-7.2,2.448-15.265,3.168-22.034h1.44ZM120.269,32.51c-1.44.72-2.52,1.3-3.456,1.8a2.567,2.567,0,0,1-1.369.36H112.2s-3.024-.72-6.624-1.512a32.027,32.027,0,0,0,9.936-5.688A18.7,18.7,0,0,0,120.269,32.51Zm-3.6,12.385h-5.4c0-2.808.072-5.328,0.072-7.057h5.328v7.057Zm0,3.168c0,2.52,0,5.257-.072,7.777h-5.328V48.063h5.4Z"/>
</svg>
